<svg width="226" height="226" viewBox="0 0 226 226" fill="none" xmlns="http://www.w3.org/2000/svg">
<path d="M216.365 144.301C212.254 157.875 205.51 170.507 196.518 181.474C187.526 192.442 176.461 201.531 163.957 208.223C151.452 214.915 137.751 219.078 123.637 220.475C109.524 221.872 95.2729 220.475 81.6989 216.365C68.1249 212.254 55.4934 205.51 44.5256 196.518C33.5579 187.526 24.4687 176.461 17.777 163.957C11.0852 151.452 6.92208 137.751 5.52515 123.637C4.12821 109.524 5.52488 95.2729 9.6354 81.6989C13.7459 68.1249 20.4898 55.4934 29.482 44.5256C38.4742 33.5579 49.5386 24.4687 62.0434 17.777C74.5483 11.0852 88.2487 6.92208 102.363 5.52514C116.476 4.12821 130.727 5.52488 144.301 9.6354C157.875 13.7459 170.507 20.4898 181.474 29.482C192.442 38.4742 201.531 49.5386 208.223 62.0434C214.915 74.5483 219.078 88.2487 220.475 102.363C221.872 116.476 220.475 130.727 216.365 144.301L216.365 144.301Z" stroke="url(#paint0_linear_0_1)" stroke-opacity="0.6" stroke-width="10" stroke-linecap="round"/>
<path d="M113 5C139.202 5 164.51 14.5253 184.209 31.8013C203.909 49.0773 216.656 72.9256 220.076 98.9032C223.496 124.881 217.356 151.216 202.799 173.002C188.242 194.787 166.261 210.538 140.952 217.32C115.644 224.101 88.7324 221.451 65.2328 209.862C41.7333 198.274 23.248 178.537 13.221 154.33C3.19406 130.123 2.30929 103.096 10.7315 78.2846C19.1538 53.4734 36.3087 32.5701 59 19.4693" stroke="#3DDC84" stroke-width="10" stroke-linecap="round"/>
<defs>
<linearGradient id="paint0_linear_0_1" x1="299.241" y1="-61.5121" x2="-120.139" y2="267.688" gradientUnits="userSpaceOnUse">
<stop stop-color="white" stop-opacity="0.3"/>
<stop offset="0.518857" stop-color="white" stop-opacity="0.05"/>
<stop offset="1" stop-color="white" stop-opacity="0.2"/>
</linearGradient>
</defs>
</svg>
