<svg width="40" height="40" viewBox="0 0 40 40" fill="none" xmlns="http://www.w3.org/2000/svg">
<g clip-path="url(#clip0_296_2839)">
<path d="M39.9933 20C39.9933 8.95416 31.0406 0 19.9966 0C8.95294 0 0 8.95416 0 20C0 31.0458 8.95294 40 19.9966 40C31.0406 40 39.9933 31.0458 39.9933 20Z" fill="#3DDC84"/>
<path d="M32.193 4.15137C34.7949 7.52722 36.3434 11.7573 36.3434 16.3492C36.3434 27.3951 27.3904 36.3492 16.3464 36.3492C11.7551 36.3492 7.52594 34.8005 4.15039 32.1982C7.80701 36.9428 13.5446 40.0004 19.9969 40.0004C31.041 40.0004 39.9936 31.0462 39.9936 20.0004C39.9936 13.5468 36.9366 7.80829 32.193 4.15137Z" fill="#18B55E"/>
<path d="M23.6577 19.0892L22.3419 20.4073V14.0663C22.3419 12.7697 21.2928 11.7188 19.9985 11.7188C18.7042 11.7188 17.6551 12.7697 17.6551 14.0663V20.4654L16.3442 19.1525C15.4291 18.2357 13.9454 18.2357 13.0303 19.1525C12.1149 20.0692 12.1149 21.5555 13.0303 22.4723L16.6553 26.1037L18.0229 27.4737C19.098 28.5504 20.8408 28.5504 21.9159 27.4737L23.2835 26.1037L26.972 22.4091C27.8843 21.4953 27.8843 20.0132 26.972 19.0994L26.9621 19.0892C26.0494 18.1754 24.5701 18.1754 23.6577 19.0892Z" fill="#0D1B2A"/>
</g>
<defs>
<clipPath id="clip0_296_2839">
<rect width="40" height="40" fill="white"/>
</clipPath>
</defs>
</svg>
