<svg viewBox="0 0 348.027 348.031" xmlns="http://www.w3.org/2000/svg" xmlns:xlink="http://www.w3.org/1999/xlink" width="348.027344" height="348.031250" fill="none" customFrame="#000000">
	<defs>
		<linearGradient id="paint_linear_2" x1="447.610138" x2="-168.469574" y1="-82.362915" y2="401.240845" gradientUnits="userSpaceOnUse">
			<stop stop-color="rgb(255,255,255)" offset="0" stop-opacity="0.300000012" />
			<stop stop-color="rgb(255,255,255)" offset="0.518857479" stop-opacity="0.0500000007" />
			<stop stop-color="rgb(255,255,255)" offset="1" stop-opacity="0.200000003" />
		</linearGradient>
	</defs>
	<g id="Group 17">
		<path id="Ellipse 18" d="M174.018 8C82.3383 8 8.01758 82.3207 8.01758 174C8.01758 265.679 82.3383 340 174.018 340C265.697 340 340.018 265.679 340.018 174C340.018 82.3207 265.697 8 174.018 8ZM140.702 27.6862C151.528 25.2287 162.633 24 174.018 24C185.402 24 196.507 25.2288 207.334 27.6863C215.862 29.6222 224.217 32.3204 232.399 35.7812C236.128 37.3582 239.78 39.0806 243.357 40.9485C248.343 43.5524 253.182 46.439 257.873 49.6082C261.514 52.0678 265.034 54.6761 268.433 57.4331C272.488 60.7218 276.372 64.2221 280.084 67.934C283.796 71.6468 287.298 75.5314 290.587 79.5876C293.343 82.9861 295.951 86.5052 298.409 90.1447C301.578 94.835 304.464 99.6729 307.068 104.658C308.936 108.236 310.659 111.889 312.236 115.618C315.697 123.801 318.396 132.157 320.332 140.686C322.789 151.512 324.018 162.616 324.018 174C324.018 185.383 322.789 196.488 320.332 207.314C318.396 215.843 315.697 224.199 312.236 232.382C310.659 236.112 308.935 239.766 307.067 243.344C304.463 248.329 301.578 253.166 298.409 257.855C295.951 261.495 293.343 265.013 290.588 268.412C287.298 272.468 283.797 276.353 280.084 280.066C276.371 283.779 272.486 287.28 268.429 290.57C265.031 293.326 261.512 295.933 257.873 298.392C253.183 301.56 248.346 304.446 243.362 307.049C239.784 308.918 236.13 310.641 232.399 312.219C224.217 315.68 215.861 318.378 207.331 320.314C196.506 322.771 185.401 324 174.018 324C162.634 324 151.53 322.771 140.704 320.314C132.175 318.378 123.819 315.68 115.636 312.219C111.906 310.641 108.252 308.918 104.674 307.049C99.689 304.446 94.8519 301.56 90.1623 298.392C86.5225 295.933 83.0033 293.325 79.6045 290.569C75.5485 287.28 71.6642 283.779 67.9516 280.066C64.2387 276.353 60.7376 272.469 57.4482 268.412C54.6921 265.014 52.0846 261.495 49.6257 257.855C46.4568 253.165 43.5705 248.327 40.9667 243.341C39.0986 239.764 37.376 236.111 35.7987 232.382C32.338 224.2 29.6397 215.844 27.7038 207.316C25.2463 196.49 24.0176 185.384 24.0176 174C24.0176 162.616 25.2464 151.51 27.7039 140.683C29.6398 132.155 32.3381 123.8 35.7988 115.618C37.3759 111.889 39.0986 108.236 40.9666 104.659C43.5704 99.6736 46.4568 94.8354 49.6257 90.1447C52.0857 86.5035 54.6944 82.9829 57.4519 79.583C60.7402 75.5284 64.2401 71.6454 67.9516 67.934C71.664 64.2215 75.5482 60.7207 79.604 57.4315C83.0029 54.6751 86.5223 52.0673 90.1623 49.6081C94.8536 46.4388 99.6924 43.5521 104.679 40.948C108.255 39.0803 111.908 37.3581 115.636 35.7812C123.818 32.3204 132.173 29.622 140.702 27.6862Z" fill="url(#paint_linear_2)" fill-opacity="0.600000024" fill-rule="evenodd" />
		<path id="Ellipse 19" d="M174.018 0C195.591 0 216.37 3.84144 236.353 11.5243C255.652 18.9439 273.108 29.5078 288.723 43.2161C304.948 57.4171 318.043 73.9942 328.008 92.9475C337.627 111.244 343.787 130.695 346.489 151.302C349.325 172.676 348.24 193.774 343.235 214.594C338.404 234.692 330.21 253.379 318.655 270.653C306.693 288.593 291.967 303.74 274.476 316.093C257.593 328.018 239.112 336.665 219.034 342.033C198.212 347.634 177.153 349.313 155.858 347.068C135.301 344.902 115.705 339.218 97.0706 330.015C77.7229 320.498 60.7836 307.875 46.2526 292.146C32.2257 276.963 21.2407 259.769 13.2977 240.564C5.02662 220.651 0.613887 199.992 0.0594749 178.586C-0.475708 157.922 2.60224 137.752 9.29331 118.075C16.2022 97.6564 26.5048 79.2134 40.2011 62.7466C53.4148 46.8599 69.019 33.7156 87.0138 23.3138L95.0211 37.166C78.6727 46.6161 64.4998 58.5534 52.5022 72.978C40.0737 87.9206 30.7201 104.67 24.4414 123.227C18.3641 141.098 15.5683 159.413 16.0541 178.172C16.5572 197.594 20.5668 216.354 28.083 234.449C35.2975 251.893 45.2715 267.506 58.0048 281.289C71.1895 295.56 86.5729 307.02 104.155 315.669C121.081 324.027 138.874 329.19 157.535 331.157C176.857 333.193 195.979 331.666 214.901 326.576C233.137 321.7 249.919 313.85 265.246 303.024C281.116 291.815 294.486 278.059 305.356 261.757C315.852 246.067 323.293 229.099 327.678 210.855C332.219 191.963 333.202 172.806 330.625 153.382C328.171 134.665 322.578 117.002 313.846 100.393C304.804 83.196 292.911 68.1449 278.166 55.2399C263.984 42.7884 248.132 33.1946 230.611 26.4586C212.476 19.4862 193.611 16 174.018 16L174.018 0ZM174.038 15.98L174.018 16C169.538 16 166.018 12.48 166.018 8C166.018 3.52 169.538 0 174.018 0L174.038 0.0200043L174.038 15.98ZM87.0065 23.3411L87.0138 23.3137C90.8924 21.0717 95.7015 22.3576 97.9436 26.2362C100.186 30.1149 98.8997 34.9239 95.0211 37.166L94.9938 37.1587L87.0065 23.3411Z" fill="rgb(61,220,132)" fill-rule="nonzero" />
	</g>
</svg>
