<svg viewBox="0 0 268 268" xmlns="http://www.w3.org/2000/svg" xmlns:xlink="http://www.w3.org/1999/xlink" width="268.000000" height="268.000000" fill="none" customFrame="#000000">
	<defs>
		<linearGradient id="paint_linear_3" x1="354.851837" x2="-142.465576" y1="-72.9435425" y2="317.435425" gradientUnits="userSpaceOnUse">
			<stop stop-color="rgb(255,255,255)" offset="0" stop-opacity="0.300000012" />
			<stop stop-color="rgb(255,255,255)" offset="0.518857479" stop-opacity="0.0500000007" />
			<stop stop-color="rgb(255,255,255)" offset="1" stop-opacity="0.200000003" />
		</linearGradient>
	</defs>
	<g id="Group 18">
		<path id="Ellipse 18" d="M134 0C59.9938 0 0 59.9938 0 134C0 208.006 59.9938 268 134 268C208.006 268 268 208.006 268 134C268 59.9938 208.006 0 134 0ZM106.924 14.9935C115.723 12.9978 124.748 12 134 12C143.252 12 152.277 12.9978 161.076 14.9935C168.02 16.5684 174.822 18.7647 181.484 21.5824C188.288 24.4601 194.729 27.8905 200.808 31.8738C207.769 36.4352 214.256 41.7216 220.267 47.733C226.279 53.7447 231.566 60.2316 236.127 67.1935C240.11 73.2721 243.54 79.7129 246.418 86.5158C249.235 93.1779 251.432 99.9809 253.007 106.925C255.002 115.724 256 124.749 256 134C256 143.251 255.002 152.277 253.007 161.075C251.432 168.019 249.235 174.822 246.418 181.484C243.54 188.288 240.109 194.729 236.126 200.808C231.565 207.769 226.278 214.256 220.267 220.267C214.256 226.278 207.769 231.565 200.808 236.126C194.729 240.11 188.288 243.54 181.484 246.418C174.822 249.235 168.019 251.432 161.075 253.007C152.277 255.002 143.251 256 134 256C124.749 256 115.724 255.002 106.925 253.007C99.9809 251.432 93.1779 249.235 86.5158 246.418C79.7131 243.54 73.2725 240.11 67.1941 236.128C60.232 231.566 53.7449 226.279 47.733 220.267C41.7217 214.256 36.4354 207.77 31.8741 200.808C27.8907 194.729 24.4601 188.288 21.5825 181.484C18.7647 174.822 16.5684 168.02 14.9935 161.076C12.9979 152.277 12 143.252 12 134C12 124.748 12.9978 115.723 14.9935 106.924C16.5684 99.9804 18.7647 93.1776 21.5824 86.5158C24.4597 79.7131 27.8897 73.2725 31.8724 67.1941C36.4342 60.232 41.721 53.7449 47.733 47.733C53.7448 41.7211 60.2318 36.4344 67.1938 31.8727C73.2723 27.8899 79.713 24.4598 86.5158 21.5824C93.1777 18.7647 99.9805 16.5684 106.924 14.9935Z" fill="url(#paint_linear_3)" fill-opacity="0.600000024" fill-rule="evenodd" />
		<path id="Ellipse 19" d="M134 0C59.9938 0 0 59.9938 0 134C0 208.006 59.9938 268 134 268C208.006 268 268 208.006 268 134C268 59.9938 208.006 0 134 0ZM106.924 14.9935C115.723 12.9978 124.748 12 134 12C143.252 12 152.277 12.9978 161.076 14.9935C168.02 16.5684 174.822 18.7647 181.484 21.5824C188.288 24.4601 194.729 27.8905 200.808 31.8738C207.769 36.4352 214.256 41.7216 220.267 47.733C226.279 53.7447 231.566 60.2316 236.127 67.1935C240.11 73.2721 243.54 79.7129 246.418 86.5158C249.235 93.1779 251.432 99.9809 253.007 106.925C255.002 115.724 256 124.749 256 134C256 143.251 255.002 152.277 253.007 161.075C251.432 168.019 249.235 174.822 246.418 181.484C243.54 188.288 240.109 194.729 236.126 200.808C231.565 207.769 226.278 214.256 220.267 220.267C214.256 226.278 207.769 231.565 200.808 236.126C194.729 240.11 188.288 243.54 181.484 246.418C174.822 249.235 168.019 251.432 161.075 253.007C152.277 255.002 143.251 256 134 256C124.749 256 115.724 255.002 106.925 253.007C99.9809 251.432 93.1779 249.235 86.5158 246.418C79.7131 243.54 73.2725 240.11 67.1941 236.128C60.232 231.566 53.7449 226.279 47.733 220.267C41.7217 214.256 36.4354 207.77 31.8741 200.808C27.8907 194.729 24.4601 188.288 21.5825 181.484C18.7647 174.822 16.5684 168.02 14.9935 161.076C12.9979 152.277 12 143.252 12 134C12 124.748 12.9978 115.723 14.9935 106.924C16.5684 99.9804 18.7647 93.1776 21.5824 86.5158C24.4597 79.7131 27.8897 73.2725 31.8724 67.1941C36.4342 60.232 41.721 53.7449 47.733 47.733C53.7448 41.7211 60.2318 36.4344 67.1938 31.8727C73.2723 27.8899 79.713 24.4598 86.5158 21.5824C93.1777 18.7647 99.9805 16.5684 106.924 14.9935Z" fill="rgb(61,220,132)" fill-rule="evenodd" />
	</g>
</svg>
