<svg viewBox="0 0 280.008 280.008" xmlns="http://www.w3.org/2000/svg" xmlns:xlink="http://www.w3.org/1999/xlink" width="280.007568" height="280.007812" fill="none" customFrame="#000000">
	<defs>
		<linearGradient id="paint_linear_1" x1="360.875763" x2="-136.44165" y1="-66.9435425" y2="323.435425" gradientUnits="userSpaceOnUse">
			<stop stop-color="rgb(255,255,255)" offset="0" stop-opacity="0.300000012" />
			<stop stop-color="rgb(255,255,255)" offset="0.518857479" stop-opacity="0.0500000007" />
			<stop stop-color="rgb(255,255,255)" offset="1" stop-opacity="0.200000003" />
		</linearGradient>
	</defs>
	<g id="Group 16">
		<path id="Ellipse 18" d="M140.024 6C66.0178 6 6.02393 65.9938 6.02393 140C6.02393 214.006 66.0178 274 140.024 274C214.03 274 274.024 214.006 274.024 140C274.024 65.9938 214.03 6 140.024 6ZM112.948 20.9935C121.747 18.9978 130.772 18 140.024 18C149.276 18 158.301 18.9978 167.1 20.9935C174.043 22.5684 180.846 24.7647 187.508 27.5824C194.312 30.4601 200.753 33.8905 206.832 37.8738C213.793 42.4352 220.28 47.7216 226.291 53.733C232.303 59.7447 237.589 66.2316 242.151 73.1935C246.134 79.2721 249.564 85.7129 252.441 92.5158C255.259 99.1779 257.456 105.981 259.031 112.925C261.026 121.724 262.024 130.749 262.024 140C262.024 149.251 261.026 158.277 259.031 167.075C257.456 174.019 255.259 180.822 252.441 187.484C249.564 194.288 246.133 200.729 242.15 206.808C237.589 213.769 232.302 220.256 226.291 226.267C220.28 232.278 213.793 237.565 206.832 242.126C200.753 246.11 194.312 249.54 187.508 252.418C180.846 255.235 174.043 257.432 167.099 259.007C158.301 261.002 149.275 262 140.024 262C130.773 262 121.748 261.002 112.949 259.007C106.005 257.432 99.2018 255.235 92.5397 252.418C85.737 249.54 79.2964 246.11 73.218 242.128C66.2559 237.566 59.7688 232.279 53.7569 226.267C47.7457 220.256 42.4594 213.77 37.898 206.808C33.9146 200.729 30.4841 194.288 27.6064 187.484C24.7887 180.822 22.5923 174.02 21.0175 167.076C19.0218 158.277 18.0239 149.252 18.0239 140C18.0239 130.748 19.0218 121.723 21.0174 112.924C22.5923 105.98 24.7886 99.1776 27.6064 92.5158C30.4837 85.7131 33.9137 79.2725 37.8964 73.1941C42.4581 66.232 47.745 59.7449 53.7569 53.733C59.7687 47.7211 66.2557 42.4344 73.2177 37.8727C79.2962 33.8899 85.7369 30.4598 92.5397 27.5824C99.2016 24.7647 106.004 22.5684 112.948 20.9935Z" fill="url(#paint_linear_1)" fill-opacity="0.600000024" fill-rule="evenodd" />
		<path id="Ellipse 19" d="M140.024 0C158.186 0 175.625 3.37481 192.341 10.1244C208.482 16.6416 222.935 25.8805 235.699 37.8413C248.964 50.2408 259.393 64.6181 266.986 80.9734C274.314 96.7583 278.548 113.381 279.689 130.841C280.894 148.959 278.678 166.582 273.039 183.709C267.597 200.239 259.325 215.266 248.221 228.789C236.716 242.837 223.052 254.184 207.228 262.83C191.956 271.174 175.646 276.487 158.298 278.767C140.298 281.155 122.568 280.096 105.108 275.589C88.2575 271.24 72.7219 263.968 58.5014 253.773C43.7313 243.211 31.515 230.318 21.8525 215.094C12.5269 200.4 6.15915 184.473 2.74932 167.311C-0.810762 149.505 -0.913375 131.744 2.44148 114.027C5.67935 96.9278 11.9198 80.9499 21.1628 66.0931C30.734 50.6674 42.8 37.6328 57.3609 26.9893C71.4071 16.722 86.8815 9.31617 103.784 4.7717L106.9 16.3602C91.4372 20.5175 77.2847 27.2898 64.4424 36.677C51.1378 46.4022 40.1076 58.3206 31.3519 72.4321C22.8984 86.0198 17.1918 100.629 14.232 116.26C11.1668 132.446 11.2626 148.684 14.5192 164.972C17.6378 180.668 23.4594 195.232 31.9842 208.663C40.8123 222.573 51.982 234.358 65.4933 244.02C78.4991 253.344 92.7037 259.994 108.107 263.97C124.059 268.087 140.268 269.054 156.734 266.869C172.6 264.784 187.514 259.927 201.474 252.299C215.931 244.4 228.422 234.025 238.947 221.174C249.102 208.806 256.666 195.067 261.641 179.956C266.793 164.308 268.817 148.197 267.714 131.623C266.671 115.655 262.8 100.456 256.102 86.0263C249.165 71.0835 239.629 57.9407 227.494 46.5978C215.819 35.6583 202.604 27.2096 187.848 21.2516C172.573 15.0839 156.631 12 140.024 12L140.024 0ZM140.044 11.98L140.024 12C136.664 12 134.024 9.36 134.024 6C134.024 2.64 136.664 0 140.024 0L140.044 0.0200043L140.044 11.98ZM103.77 4.79621L103.784 4.7717C107.029 3.89931 110.264 5.76333 111.136 9.0081C112.009 12.2529 110.145 15.4878 106.9 16.3602L106.876 16.346L103.77 4.79621Z" fill="rgb(61,220,132)" fill-rule="nonzero" />
	</g>
</svg>
