<svg width="108" height="44" viewBox="0 0 108 44" fill="none" xmlns="http://www.w3.org/2000/svg">
<path d="M7.28205 29.8242C6.14273 28.3075 5.35888 26.6068 4.97607 24.7132C4.77555 23.705 4.63883 22.6968 4.5568 21.6711C4.54768 21.5747 4.53857 21.4783 4.53857 21.3818C4.65706 21.3906 4.77555 21.3994 4.90316 21.4081V21.6273C4.90316 24.494 5.73258 27.2906 7.28205 29.8242Z" fill="url(#paint0_linear_547_69)"/>
<path d="M18.7664 33.7347C18.8211 33.875 18.8576 34.024 18.8667 34.1818C18.9578 33.9714 19.0672 33.7698 19.2039 33.5682C19.7781 32.7704 20.6896 32.3584 21.6011 31.9814C21.6193 31.9639 21.6375 31.9463 21.6557 31.9288C21.911 31.7272 22.2026 31.5957 22.5125 31.4817C22.4761 31.0434 22.8133 30.307 23.0138 30.1755C24.0529 29.5267 25.2104 29.1585 26.4044 28.9043C26.4409 28.4397 26.6961 27.8611 26.9878 27.8435C27.4799 27.826 27.9813 27.7997 28.4734 27.7822C28.9565 27.4052 29.476 27.2123 30.0776 27.7296C30.1414 27.7909 30.187 27.8874 30.2052 28.0101C30.3328 28.0189 30.4604 28.0189 30.588 28.0276C30.6336 27.9838 30.6792 27.94 30.7247 27.9049C31.2351 27.414 31.7547 26.8967 32.2013 26.3444C32.3836 26.1165 32.5203 25.836 32.7117 25.6256C32.7299 25.5993 32.7482 25.5642 32.7573 25.5291C32.739 25.4941 32.7299 25.4678 32.7208 25.459H21.7378C21.674 26.4496 21.5919 26.9318 20.9357 27.7296C20.2339 28.5799 19.6232 29.2111 18.5933 29.0358V33.5769C18.6662 33.5769 18.7209 33.612 18.7664 33.7347Z" fill="url(#paint1_linear_547_69)"/>
<path d="M4.35693 10.6427L8.11212 10.52V7.36396L4.38427 6.10156L4.35693 10.6427Z" fill="url(#paint2_linear_547_69)"/>
<path d="M11.5659 7.60059H14.4832V4.44459L11.6218 3.19043L11.5659 7.60059Z" fill="url(#paint3_linear_547_69)"/>
<path d="M37.1879 21.4607C37.115 22.2321 37.0421 22.7581 36.951 23.4595H22.6138L24.5825 21.3555L37.1879 21.4607Z" fill="url(#paint4_linear_547_69)"/>
<path d="M32.831 10.5901L29.1123 10.52V7.36396L32.831 6.10156V10.5901Z" fill="url(#paint5_linear_547_69)"/>
<path d="M25.6121 7.57466H22.7319L22.7593 4.41865L25.6121 3.15625V7.57466Z" fill="url(#paint6_linear_547_69)"/>
<path d="M18.5931 9.94142C19.7233 10.4061 20.8444 10.9058 21.9473 11.4318C23.6243 12.1769 25.265 12.9572 26.9238 13.7374C27.972 14.1933 28.9837 14.693 30.0319 15.1225C30.0319 16.2096 30.0319 18.6643 30.0319 18.6643H32.8574V13.8514C32.8574 13.8514 30.123 12.5977 29.5397 12.3347C29.3574 12.2471 29.166 12.1682 28.9837 12.0805C27.8535 11.572 26.7324 11.0548 25.6022 10.5463C24.9368 10.2395 24.2715 9.93266 23.6152 9.63459C23.3327 9.50309 23.0501 9.38035 22.7584 9.24885C22.5306 9.14365 22.3118 9.04722 22.0931 8.94202C20.9355 8.42479 19.7598 7.92508 18.6022 7.40785V0L22.5032 1.77964L22.7676 1.8936V6.22435C23.6881 6.58378 24.5905 7.00458 25.4837 7.41662C25.5384 7.43415 25.5748 7.46045 25.6113 7.47799V3.15601L29.5488 5.04961C29.5488 5.04961 29.5488 5.04961 29.5032 9.11735C29.9498 9.31022 32.8209 10.5814 32.8209 10.5814C32.8209 9.08812 32.8209 7.59476 32.8209 6.10161L37.1959 7.99522V12.5364C37.2324 13.7549 37.1959 14.9735 37.1959 16.1833C37.1959 17.9279 37.1959 19.7075 37.1959 21.4521C33.067 21.4521 28.9381 21.3995 24.8092 21.4433C24.7363 21.4433 24.6634 21.4346 24.6087 21.4872C24.5722 21.5047 24.5358 21.5222 24.5084 21.5398C24.5084 20.9261 24.9459 16.8846 24.7272 16.7444C24.0618 16.4288 23.0957 15.9115 22.4303 15.5959C21.2181 15.0173 20.0241 14.4387 18.8392 13.8075C18.8301 13.7988 18.8118 13.7988 18.7936 13.7988C18.7572 13.7812 18.7298 13.7637 18.7025 13.7549C18.6569 13.7199 18.6113 13.6936 18.5566 13.6585" fill="url(#paint7_linear_547_69)"/>
<path d="M30.5975 28.9039C30.0597 29.6403 29.5128 30.3679 28.8657 31.0254C28.5194 31.3849 28.1821 31.7706 27.8175 32.1125C26.897 32.9892 25.9217 33.7869 24.9009 34.5321C25.1287 34.348 25.3475 34.1639 25.5571 33.971C27.1613 32.5596 28.647 31.0167 30.0688 29.4387C30.2694 29.2107 30.4699 28.9828 30.6613 28.7461C30.6886 28.8075 30.6339 28.8601 30.5975 28.9039Z" fill="url(#paint8_linear_547_69)"/>
<path d="M36.5764 25.2918C36.4944 25.6512 36.3941 26.0194 36.2938 26.3701C35.5829 29.0177 34.4071 31.4197 32.803 33.5939C29.622 37.9071 24.7913 41.3261 18.5569 43.9912L18.5296 43.5967C18.5205 43.5967 18.5204 43.6054 18.5204 43.6054C18.5204 43.5967 18.5204 43.5879 18.5204 43.5704C18.5204 43.5616 18.5204 43.5616 18.5204 43.5616C18.5204 43.5441 18.5205 43.5353 18.5113 43.5178V43.3775C18.5113 42.9918 18.4931 42.606 18.5204 42.229V40.3442L18.566 38.4243C19.6415 37.872 20.6168 37.2759 21.6376 36.6534C21.8108 36.5482 21.984 36.443 22.1663 36.3291C22.7496 35.9959 23.3238 35.654 23.8525 35.2946C24.2262 35.0404 24.5907 34.7861 24.9553 34.5231C25.9853 33.778 26.9605 32.9802 27.8811 32.1035C28.2457 31.7529 28.5738 31.3759 28.9293 31.0165C29.5764 30.359 30.1233 29.6313 30.661 28.8949C30.6975 28.8511 30.7522 28.7985 30.7248 28.7459C30.7248 28.7459 30.7248 28.7459 30.7248 28.7371C30.6884 28.6845 30.6246 28.7021 30.5699 28.7021C30.5608 28.7021 30.5608 28.7021 30.5608 28.7021C29.5126 28.7021 28.4644 28.7021 27.4254 28.7021C27.3069 28.7021 27.2157 28.7371 27.1519 28.8248C26.5048 29.6489 25.7301 30.3502 24.9462 31.0428C23.971 31.9019 22.9046 32.6383 21.8108 33.3572C20.7718 34.041 19.6962 34.6809 18.6389 35.3384C18.6298 35.3297 18.5869 35.3788 18.5778 35.3701C18.5778 33.757 18.3035 32.1035 18.3035 30.4905L18.2944 30.3239C18.3035 30.2888 18.3127 30.2625 18.3218 30.2362C18.3309 30.2187 18.3309 30.2012 18.34 30.1836C18.3765 30.1223 18.4038 30.0784 18.4312 30.0346C18.9871 29.719 19.8694 29.4122 20.4163 29.0878C21.0725 28.7021 21.7379 28.3076 22.3121 27.8079C22.7678 27.4046 23.2327 27.0013 23.6428 26.5542C23.7978 26.3876 23.741 26.5916 22.8296 26.4075C22.9207 26.2234 22.9936 26.0305 23.0483 25.8377C23.0666 25.7588 23.0939 25.6799 23.103 25.5922L24.4835 25.2217H24.5816L31.9462 25.2392H32.0282L36.5764 25.2918Z" fill="url(#paint9_linear_547_69)"/>
<path d="M21.6377 36.6535C20.6077 37.2759 19.5778 37.8983 18.5114 38.4506V40.353L18.4385 38.2928C19.6416 37.6529 20.9359 37.0217 22.1572 36.3291C21.9931 36.4431 21.8109 36.5483 21.6377 36.6535Z" fill="url(#paint10_linear_547_69)"/>
<path d="M18.5752 38.4591C17.4997 37.9068 16.4697 37.2757 15.4398 36.6533C14.1546 35.8731 12.9059 35.0402 11.7119 34.1197C10.8916 33.4885 10.0804 32.8485 9.36037 32.0946C9.34214 32.0771 9.32391 32.0595 9.3148 32.042C9.29657 32.0245 9.27834 32.0157 9.26922 31.9982C9.25099 31.9806 9.23277 31.9631 9.22365 31.9543C9.20542 31.9368 9.18719 31.9193 9.17808 31.9105C9.15985 31.893 9.14162 31.8754 9.1325 31.8667C9.11428 31.8491 9.09605 31.8316 9.07782 31.8228C8.95022 31.7176 8.82261 31.6037 8.71324 31.4722C6.79007 29.561 5.4958 27.3343 4.96716 24.7043C4.76664 23.6961 4.62992 22.688 4.54789 21.6623C4.50232 21.0661 4.47498 20.47 4.45675 19.8651C4.42029 18.629 4.39294 17.3929 4.42029 16.1568C4.43852 15.3765 4.45675 14.5875 4.45675 13.8073V13.6846L7.59216 15.3152C7.50101 15.4028 7.46455 15.5168 7.46455 15.6746C7.47366 16.2532 7.44631 16.8318 7.44631 17.4016C7.42808 19.2251 7.38252 21.0486 7.60127 22.8633C7.71064 23.74 7.90205 24.5903 8.15725 25.4319C8.53095 26.6768 9.19632 27.7639 10.0531 28.7545C10.1533 28.8948 10.2536 29.035 10.3539 29.1753C10.3903 29.2104 10.4268 29.2367 10.4541 29.263C11.4294 30.3237 12.5413 31.253 13.7262 32.1034C14.738 32.831 18.5752 35.3628 18.5752 35.3628C18.5752 35.3628 18.6035 37.0624 18.6126 37.9917" fill="url(#paint11_linear_547_69)"/>
<path d="M18.5935 7.41686V9.95043C18.5935 9.95043 16.8891 10.7745 16.16 11.1252C14.5831 11.8966 13.0154 12.6418 11.4386 13.4308C10.6365 13.8341 9.81623 14.2023 9.00504 14.6055C8.604 14.8072 8.19384 15.0088 7.78368 15.2104C7.70165 15.2455 7.63785 15.2893 7.60139 15.3332L4.4751 13.6938C4.49333 13.65 4.54801 13.6324 4.61182 13.6061C5.14957 13.3782 5.67822 13.1415 6.21597 12.9048C7.01805 12.5454 7.81103 12.1772 8.61311 11.809C11.0193 10.7044 13.4256 9.591 15.8409 8.4864C16.7251 8.08313 17.6001 7.67986 18.5297 7.36426C18.5206 7.37302 18.5844 7.41686 18.5935 7.41686Z" fill="url(#paint12_linear_547_69)"/>
<path d="M5.3754 34.1289C5.36681 34.1376 5.36681 34.1463 5.35821 34.1636L5.34961 34.1463C5.35821 34.1376 5.36681 34.1289 5.3754 34.1289Z" fill="#006B44"/>
<path d="M4.48435 13.7023C4.45701 15.7011 4.41144 17.8753 4.47524 19.8741C4.49347 20.3738 4.5117 20.8822 4.54816 21.3819C4.55728 21.4784 4.55727 21.5748 4.56639 21.6713C4.6393 22.697 4.77602 23.7139 4.98565 24.7133C5.36847 26.6157 6.15232 28.3076 7.29164 29.8243C7.72002 30.3941 8.2031 30.9464 8.73174 31.4724C8.832 31.6039 8.95961 31.7179 9.09633 31.8231C9.11455 31.8406 9.13278 31.8494 9.15101 31.8669C9.16924 31.8844 9.18747 31.902 9.19658 31.9107C9.21481 31.9195 9.23304 31.937 9.24216 31.9546C9.26039 31.9721 9.2695 31.9896 9.28773 31.9984C9.30596 32.0159 9.31507 32.0335 9.3333 32.0422C9.35153 32.0598 9.36976 32.0773 9.37887 32.0948C10.0989 32.84 10.9101 33.48 11.7304 34.1199C12.9153 35.0317 14.164 35.8645 15.4583 36.6448C16.4882 37.2672 17.5182 37.8896 18.5846 38.4419C18.5846 40.3005 18.5663 42.1415 18.5663 44C9.16012 40.0024 2.90755 34.2514 0.802085 26.379C0.628908 25.7828 0.483071 25.1867 0.364582 24.5643C0.30078 24.2136 0.236976 23.8717 0.191403 23.521C0.0911433 22.7145 0.0273414 21.8992 0.00911232 21.0839V19.6637C0.00911232 18.4626 0 17.2528 0 16.043V15.105C0.00911455 15.105 0.0091101 15.105 0.0182246 15.1138C0.0091101 14.2634 4.44938e-06 13.4218 0.0273481 12.5714V8.02152L4.40233 6.12791C4.40233 7.59195 4.41144 9.12612 4.41144 10.6428C4.41144 10.6428 7.2005 9.37159 7.64711 9.17872C7.64711 9.17872 7.68357 6.39968 7.68357 5.08468L11.6211 3.19107V7.51305C11.6575 7.49552 11.694 7.47798 11.7487 7.45168C12.6419 7.03965 13.5442 6.61885 14.4648 6.25942V1.8936L14.7291 1.77964L18.621 0V7.40785C17.4635 7.92509 16.3059 8.43355 15.1393 8.95079C14.9114 9.04722 14.6927 9.15242 14.4739 9.25762C14.1914 9.38036 13.9088 9.51186 13.6171 9.64336C12.9518 9.94142 12.2955 10.2483 11.6302 10.5551C10.5 11.0723 9.37887 11.5896 8.24867 12.0893C8.06638 12.1769 7.87497 12.2558 7.69268 12.3435C7.08201 12.6065 4.48435 13.7023 4.48435 13.7023Z" fill="url(#paint13_linear_547_69)"/>
<path d="M5.41369 34.2076L5.37793 34.1725C5.41369 34.155 5.43157 34.1638 5.41369 34.2076Z" fill="#006B44"/>
<path d="M9.18701 31.9199C9.20489 31.9375 9.22277 31.955 9.23171 31.9638C9.21383 31.9462 9.20489 31.9287 9.18701 31.9199Z" fill="#004233"/>
<path d="M9.23291 31.9629C9.25079 31.9804 9.26867 31.998 9.27761 32.0067C9.25973 31.9892 9.25079 31.9804 9.23291 31.9629Z" fill="#004233"/>
<path d="M9.27881 32.0068C9.29669 32.0244 9.31457 32.0419 9.32351 32.0507C9.30563 32.0331 9.28775 32.0244 9.27881 32.0068Z" fill="#004233"/>
<path d="M18.6029 13.6409C18.6029 13.6409 14.5652 15.631 12.6056 16.5865C12.4688 16.6567 12.4233 16.7268 12.4233 16.8758C12.3959 18.7256 12.3777 20.5666 12.405 22.4076C12.4142 23.1791 12.4688 23.9418 12.6694 24.6957C12.7605 25.0201 12.879 25.3269 13.0704 25.6162C13.116 25.6776 13.1524 25.739 13.1433 25.8179C13.3803 26.0107 13.5444 26.2737 13.7722 26.4841C13.836 26.5455 13.8998 26.6069 13.9636 26.677C14.0365 26.7471 14.1095 26.826 14.1824 26.8962C14.2553 26.9838 14.3282 27.0627 14.4194 27.1153C14.4376 27.1329 14.4558 27.1504 14.4649 27.1679C14.474 27.1767 14.4923 27.1855 14.5014 27.203C14.5196 27.2205 14.5378 27.2381 14.5561 27.2556C15.0847 27.7816 15.6863 28.2199 16.3061 28.6407C16.9897 29.1054 17.6824 29.5525 18.3751 29.9996C18.4753 30.0697 18.6394 30.1661 18.612 30.2976C18.612 31.9896 18.5761 33.678 18.5761 35.3699C16.9173 34.3793 15.2943 33.252 13.7358 32.1299C11.3295 30.3941 9.05088 28.2988 8.17588 25.4584C7.92068 24.6168 7.72927 23.7664 7.6199 22.8898C7.40115 21.0663 7.44673 19.2428 7.46495 17.4281V15.2452C8.67719 14.6579 10.2175 14.0004 11.4298 13.4042C13.0066 12.624 14.5925 11.8525 16.1785 11.0723C16.9167 10.7129 17.8646 10.2921 18.612 9.93262C18.5938 9.94138 18.5938 13.0711 18.6029 13.6409Z" fill="url(#paint14_linear_547_69)"/>
<path d="M18.5757 38.4331C18.5757 37.3987 18.5848 36.3817 18.5757 35.3473C19.6239 34.6985 20.6811 34.041 21.7202 33.366C22.8048 32.6471 23.8803 31.9107 24.8556 31.0516C25.3569 30.6133 27.2436 28.7109 27.2436 28.7109C27.672 28.7109 30.8348 28.6934 30.8348 28.6934C28.8022 31.7968 26.5418 33.515 23.7983 35.3736C22.1395 36.4957 20.353 37.4951 18.5757 38.4331Z" fill="url(#paint15_linear_547_69)"/>
<path d="M30.0325 15.1139C30.9531 14.7194 31.9557 14.2723 32.8581 13.834V18.6644C31.9101 18.6644 30.9714 18.6644 30.0234 18.6644C30.0326 17.5774 30.0325 16.201 30.0325 15.1139Z" fill="#0B1826"/>
<path d="M32.8575 13.843C31.9552 14.2813 30.9526 14.7284 30.032 15.1229C29.2937 14.8248 28.5737 14.4829 27.8536 14.1498C27.6896 14.0797 27.5255 14.0008 27.3523 13.9219C24.4357 12.5893 21.5281 11.2217 18.5933 9.94177V7.4082C19.7782 7.9342 20.9084 8.42514 22.0933 8.95114C22.6037 9.17907 23.1141 9.40701 23.6154 9.64371C24.8641 10.2135 26.1128 10.7834 27.3523 11.3444C27.8901 11.5899 28.437 11.8354 28.9838 12.0896C29.9591 12.5279 30.9435 12.9487 31.9096 13.4046C32.1101 13.5098 32.8575 13.843 32.8575 13.843Z" fill="url(#paint16_linear_547_69)"/>
<path d="M17.2988 27.0359C15.64 26.1593 14.6009 24.5024 14.6009 22.7052L14.6556 17.9624L12.377 16.6299V23.2137C12.377 26.9921 15.804 28.6753 18.6113 30.5689L18.619 27.7338L17.2988 27.0359Z" fill="url(#paint17_linear_547_69)"/>
<path d="M18.5931 13.6328V16.0086L14.6556 17.9548L12.377 16.6223L18.5931 13.6328Z" fill="url(#paint18_linear_547_69)"/>
<path d="M24.4886 25.2207C23.5316 27.8419 20.8271 29.0613 18.6123 30.5604V27.7288C19.8519 27.0713 21.1592 26.4305 21.8884 25.2119L24.4886 25.2207Z" fill="url(#paint19_linear_547_69)"/>
<path d="M24.8468 16.7441V21.4606L22.6138 23.4682V17.9802L24.8468 16.7441Z" fill="url(#paint20_linear_547_69)"/>
<path d="M24.8458 16.7099V16.745L22.6128 17.9811L22.3302 17.8408L21.3459 17.3587L18.5933 16.0086V13.6328L22.3302 15.465L23.7612 16.1752L24.8458 16.7099Z" fill="url(#paint21_linear_547_69)"/>
<path d="M83.9475 25.3271V41.2036H81.205L75.2845 30.2102V41.2036H72.5698V25.3271H75.2753L81.2421 36.3995V25.3271H83.9475Z" fill="url(#paint22_linear_547_69)"/>
<path d="M69.475 27.7818C69.0581 27.0191 68.4558 26.4142 67.6775 25.9846C66.8993 25.5463 65.9542 25.3271 64.8424 25.3271H59.3018V41.2036H62.0999V35.3124H64.8424C65.9542 35.3124 66.8993 35.1195 67.6775 34.725C68.4651 34.3218 69.0581 33.7607 69.475 33.0243C69.8919 32.2879 70.0958 31.4112 70.0958 30.3855C70.0958 29.4124 69.8919 28.5358 69.475 27.7818ZM67.0197 31.797C66.8622 32.2002 66.6028 32.5246 66.2507 32.7613C65.8986 32.998 65.4261 33.112 64.8424 33.112H62.0999V27.5627H64.8424C65.4261 27.5627 65.8986 27.6942 66.2507 27.9659C66.6028 28.2377 66.8622 28.5884 67.0197 29.0267C67.1865 29.465 67.2699 29.9297 67.2699 30.4206C67.2699 30.9291 67.1865 31.3937 67.0197 31.797Z" fill="url(#paint23_linear_547_69)"/>
<path d="M57.3749 25.3271L52.3625 41.2036H49.6385L44.626 25.3271H47.6464L50.9819 37.4865L54.3452 25.3271H57.3749Z" fill="url(#paint24_linear_547_69)"/>
<path d="M108 5.60156H105.313V21.478H108V5.60156Z" fill="white"/>
<path d="M102.997 15.1047C102.997 14.193 102.904 13.3777 102.719 12.6764C102.543 11.975 102.265 11.3789 101.885 10.8967C101.515 10.4146 101.042 10.0551 100.468 9.81842C99.8932 9.58172 99.2075 9.45898 98.4293 9.45898C97.7344 9.45898 97.0951 9.57295 96.5021 9.80089C95.9184 10.0288 95.4088 10.3707 94.9826 10.8354C94.5564 11.3 94.2136 11.8961 93.9727 12.6238C93.7318 13.3426 93.6113 14.2018 93.6113 15.2012V16.3321C93.6113 17.2087 93.7225 17.989 93.9541 18.6552C94.1858 19.3127 94.5193 19.8738 94.9548 20.3384C95.3903 20.7855 95.9276 21.1274 96.5577 21.3641C97.1877 21.5921 97.9104 21.706 98.7165 21.706C99.4299 21.706 100.051 21.6184 100.588 21.443C101.125 21.2677 101.579 21.0485 101.959 20.7768C102.339 20.505 102.636 20.2245 102.858 19.9352L101.672 18.3747C101.339 18.7341 100.949 19.0234 100.495 19.2514C100.051 19.4705 99.5133 19.5757 98.8925 19.5757C98.4663 19.5757 98.0957 19.5144 97.7714 19.4004C97.4564 19.2777 97.1877 19.0848 96.9654 18.8306C96.743 18.5676 96.5762 18.2344 96.4558 17.8312C96.3538 17.4367 96.2982 16.9545 96.2982 16.3934H102.997V15.1047ZM100.347 14.4648H96.326C96.3446 14.0966 96.3909 13.7722 96.4465 13.4917C96.5391 13.027 96.6689 12.6588 96.8356 12.3783C97.0117 12.1065 97.234 11.9049 97.5027 11.7822C97.7714 11.6594 98.0772 11.5981 98.42 11.5981C98.8925 11.5981 99.2724 11.7033 99.5411 11.9137C99.819 12.1153 100.014 12.4134 100.143 12.8079C100.264 13.1936 100.338 13.6582 100.347 14.193V14.4648Z" fill="white"/>
<path d="M88.5152 5.60156V10.7388C88.2372 10.3706 87.9129 10.0813 87.5331 9.86217C87.0791 9.5904 86.5417 9.4589 85.9209 9.4589C85.2816 9.4589 84.7072 9.57287 84.2068 9.80081C83.6972 10.0287 83.2618 10.3794 82.9004 10.844C82.5484 11.3174 82.2797 11.9048 82.0944 12.6237C81.9091 13.325 81.8164 14.1666 81.8164 15.131V16.0602C81.8164 16.9895 81.9091 17.8048 82.0944 18.5149C82.2797 19.2162 82.5484 19.7948 82.9004 20.2682C83.2618 20.7416 83.688 21.1011 84.1883 21.3378C84.6979 21.5745 85.2723 21.6972 85.9024 21.6972C86.5139 21.6972 87.0513 21.5657 87.5053 21.3027C87.95 21.0397 88.3206 20.689 88.6356 20.2332L88.7653 21.4868L91.1928 21.478V5.60156H88.5152ZM88.5152 18.3746C88.3484 18.699 88.1353 18.962 87.8573 19.1636C87.5516 19.4003 87.1532 19.5143 86.6621 19.5143C86.273 19.5143 85.9394 19.4529 85.6615 19.3214C85.3835 19.1812 85.1612 18.9795 84.9944 18.699C84.8276 18.4185 84.6979 18.059 84.6238 17.6207C84.5497 17.1824 84.5126 16.6651 84.5126 16.0602V15.131C84.5126 14.526 84.5497 14.0088 84.6238 13.5705C84.7072 13.1234 84.8369 12.7639 85.0036 12.4834C85.1704 12.1941 85.3928 11.9749 85.6707 11.8434C85.9487 11.6944 86.2822 11.6243 86.6714 11.6243C87.0235 11.6243 87.3292 11.6944 87.5887 11.8434C87.8573 11.9837 88.089 12.1766 88.265 12.422C88.3577 12.5448 88.4318 12.6675 88.5059 12.8078V18.3746H88.5152Z" fill="white"/>
<path d="M79.5924 20.1982C79.5276 19.7686 79.4905 19.2777 79.4905 18.7341V13.2287C79.4905 12.3257 79.3145 11.5981 78.9531 11.0458C78.6011 10.4847 78.11 10.0814 77.4892 9.83595C76.8685 9.58172 76.155 9.45898 75.3582 9.45898C74.6911 9.45898 74.0796 9.55542 73.533 9.75705C72.9863 9.94992 72.5231 10.2217 72.1339 10.5636C71.7541 10.9055 71.4576 11.2912 71.2445 11.7296C71.0406 12.1679 70.948 12.6238 70.948 13.0972H73.6349C73.6349 12.7903 73.6998 12.5186 73.8202 12.2906C73.9406 12.0539 74.126 11.8611 74.3669 11.7208C74.617 11.5805 74.9135 11.5104 75.2656 11.5104C75.5991 11.5104 75.8864 11.5718 76.1087 11.6857C76.3403 11.7909 76.5164 11.975 76.6276 12.2205C76.748 12.466 76.8129 12.7991 76.8129 13.2024V14.2894H75.6825C74.8486 14.2894 74.126 14.3859 73.5052 14.57C72.8937 14.7628 72.3748 15.0258 71.9764 15.3765C71.5687 15.7184 71.263 16.1304 71.0592 16.6126C70.8553 17.0948 70.7441 17.6295 70.7441 18.2169C70.7441 18.9445 70.9016 19.567 71.2074 20.093C71.5224 20.6102 71.9486 21.0047 72.4953 21.2852C73.0419 21.5658 73.6627 21.6973 74.3669 21.6973C74.8486 21.6973 75.2748 21.6096 75.6455 21.443C76.0161 21.2677 76.3311 21.0398 76.5905 20.768C76.711 20.6453 76.8129 20.5138 76.9148 20.3823C76.9797 20.8294 77.0723 21.1888 77.1928 21.4693H79.926V21.294C79.7685 20.9872 79.6666 20.6277 79.5924 20.1982ZM75.9975 19.3215C75.6825 19.4968 75.3119 19.5845 74.8764 19.5845C74.5614 19.5845 74.2927 19.5319 74.0704 19.4179C73.8573 19.304 73.6905 19.1286 73.5793 18.8919C73.4681 18.6552 73.4218 18.3572 73.4218 17.989C73.4218 17.6821 73.4774 17.4016 73.5793 17.1474C73.6905 16.8931 73.8573 16.674 74.0611 16.5074C74.2742 16.3233 74.5336 16.1918 74.8486 16.0954C75.1544 15.9902 75.4972 15.9463 75.8863 15.9463H76.8129V18.5676C76.7943 18.6026 76.7665 18.6377 76.748 18.6728C76.5627 18.9182 76.3218 19.1374 75.9975 19.3215Z" fill="white"/>
<path d="M68.9656 19.3829V21.4343C68.7618 21.5044 68.5394 21.5658 68.2707 21.6184C68.0113 21.671 67.6963 21.6973 67.3256 21.6973C66.779 21.6973 66.2879 21.5921 65.8617 21.3817C65.4355 21.1625 65.0927 20.8119 64.8518 20.3209C64.6017 19.83 64.4812 19.1725 64.4812 18.3572V11.6419H62.8135V9.67816H64.4812V6.78516H67.1589V9.67816H68.9378V11.6419H67.1589V18.1818C67.1589 18.5413 67.2052 18.8218 67.2886 19.0147C67.372 19.2076 67.4924 19.3303 67.6499 19.4004C67.8074 19.4706 67.9835 19.4969 68.1873 19.4969C68.3448 19.4969 68.4931 19.4881 68.6413 19.4618C68.7803 19.4267 68.9007 19.4092 68.9656 19.3829Z" fill="white"/>
<path d="M61.0253 9.67871H58.3384V21.4787H61.0253V9.67871Z" fill="white"/>
<path d="M58.1992 7.10966C58.1992 6.70639 58.3289 6.36449 58.5884 6.09272C58.8478 5.82095 59.2184 5.68945 59.6817 5.68945C60.1542 5.68945 60.5155 5.82095 60.775 6.09272C61.0344 6.36449 61.1641 6.69762 61.1641 7.10966C61.1641 7.51292 61.0344 7.84606 60.775 8.10906C60.5155 8.38083 60.1449 8.51233 59.6817 8.51233C59.2091 8.51233 58.8478 8.38083 58.5884 8.10906C58.3289 7.84606 58.1992 7.50416 58.1992 7.10966Z" fill="white"/>
<path d="M53.1407 16.2973H55.9296C55.874 17.4457 55.6331 18.4276 55.1883 19.2341C54.7529 20.0319 54.1228 20.6456 53.2982 21.0664C52.4829 21.4872 51.4915 21.6976 50.3148 21.6976C49.4254 21.6976 48.6286 21.5485 47.9151 21.2417C47.2202 20.9349 46.618 20.4965 46.1269 19.9179C45.6359 19.3393 45.256 18.6292 44.9966 17.7876C44.7464 16.9548 44.6167 15.9992 44.6167 14.9385V12.1244C44.6167 11.0636 44.7464 10.1168 45.0058 9.27518C45.2745 8.44234 45.6544 7.73224 46.1547 7.14487C46.6551 6.56627 47.2573 6.11917 47.98 5.8211C48.7027 5.51427 49.518 5.36523 50.426 5.36523C51.5842 5.36523 52.5663 5.57563 53.3538 5.99644C54.1414 6.41724 54.7529 7.03967 55.1883 7.84621C55.6145 8.66151 55.8647 9.65214 55.9388 10.8269H53.15C53.1129 10.0379 52.9925 9.39791 52.8072 8.93327C52.6219 8.45111 52.3346 8.10921 51.9548 7.89881C51.5749 7.68841 51.0746 7.5832 50.4353 7.5832C49.9071 7.5832 49.4439 7.67964 49.064 7.86374C48.6841 8.05661 48.3784 8.33714 48.1282 8.71411C47.8873 9.08231 47.7113 9.55571 47.5908 10.1168C47.4797 10.6778 47.4148 11.3353 47.4148 12.0893V14.9209C47.4148 15.6486 47.4611 16.2885 47.563 16.8496C47.665 17.4107 47.8225 17.8841 48.0448 18.2786C48.2672 18.6643 48.5637 18.9624 48.9343 19.164C49.3049 19.3569 49.7682 19.4621 50.3148 19.4621C50.9727 19.4621 51.5008 19.3656 51.8899 19.164C52.2883 18.9711 52.5848 18.638 52.7794 18.1734C52.9739 17.7263 53.0944 17.0951 53.1407 16.2973Z" fill="white"/>
<defs>
<linearGradient id="paint0_linear_547_69" x1="16.2679" y1="12.9798" x2="2.34076" y2="31.3208" gradientUnits="userSpaceOnUse">
<stop/>
<stop offset="0.1041" stop-color="#0E321E"/>
<stop offset="0.2136" stop-color="#1A5F39"/>
<stop offset="0.328" stop-color="#258550"/>
<stop offset="0.4456" stop-color="#2EA563"/>
<stop offset="0.5675" stop-color="#34BD71"/>
<stop offset="0.6955" stop-color="#39CE7C"/>
<stop offset="0.8335" stop-color="#3CD982"/>
<stop offset="1" stop-color="#3DDC84"/>
</linearGradient>
<linearGradient id="paint1_linear_547_69" x1="18.6098" y1="29.8179" x2="37.0569" y2="29.8179" gradientUnits="userSpaceOnUse">
<stop offset="0.052" stop-color="#3BD680"/>
<stop offset="0.099" stop-color="#3BD580"/>
<stop offset="0.433" stop-color="#31B46B"/>
<stop offset="0.4885" stop-color="#31B46B"/>
<stop offset="0.637" stop-color="#31B56C"/>
<stop offset="1" stop-color="#3DDC84"/>
</linearGradient>
<linearGradient id="paint2_linear_547_69" x1="2.28341" y1="1.18801" x2="12.069" y2="22.1342" gradientUnits="userSpaceOnUse">
<stop offset="0.002" stop-color="#0D1B2A"/>
<stop offset="0.0544416" stop-color="#133235"/>
<stop offset="0.1701" stop-color="#1E5F4A"/>
<stop offset="0.2908" stop-color="#27855C"/>
<stop offset="0.4149" stop-color="#2FA56A"/>
<stop offset="0.5436" stop-color="#35BD76"/>
<stop offset="0.6786" stop-color="#3ACE7E"/>
<stop offset="0.8243" stop-color="#3CD982"/>
<stop offset="1" stop-color="#3DDC84"/>
</linearGradient>
<linearGradient id="paint3_linear_547_69" x1="8.99363" y1="-1.94723" x2="18.7792" y2="18.9989" gradientUnits="userSpaceOnUse">
<stop offset="0.002" stop-color="#0D1B2A"/>
<stop offset="0.0544416" stop-color="#133235"/>
<stop offset="0.1701" stop-color="#1E5F4A"/>
<stop offset="0.2908" stop-color="#27855C"/>
<stop offset="0.4149" stop-color="#2FA56A"/>
<stop offset="0.5436" stop-color="#35BD76"/>
<stop offset="0.6786" stop-color="#3ACE7E"/>
<stop offset="0.8243" stop-color="#3CD982"/>
<stop offset="1" stop-color="#3DDC84"/>
</linearGradient>
<linearGradient id="paint4_linear_547_69" x1="26.8181" y1="26.2138" x2="39.1852" y2="13.3559" gradientUnits="userSpaceOnUse">
<stop offset="0.2398" stop-color="#0D1B2A"/>
<stop offset="0.8085" stop-color="#35BD76"/>
<stop offset="0.8432" stop-color="#1E5F4A"/>
<stop offset="1" stop-color="#3DDC84"/>
</linearGradient>
<linearGradient id="paint5_linear_547_69" x1="33.468" y1="7.17116" x2="25.4464" y2="13.4532" gradientUnits="userSpaceOnUse">
<stop offset="0.002" stop-color="#0D1B2A"/>
<stop offset="0.1701" stop-color="#1E5F4A"/>
<stop offset="0.2908" stop-color="#27855C"/>
<stop offset="0.4149" stop-color="#2FA56A"/>
<stop offset="0.5436" stop-color="#35BD76"/>
<stop offset="0.6786" stop-color="#3ACE7E"/>
<stop offset="0.8243" stop-color="#3CD982"/>
<stop offset="1" stop-color="#3DDC84"/>
</linearGradient>
<linearGradient id="paint6_linear_547_69" x1="25.9098" y1="3.57613" x2="19.7102" y2="12.9804" gradientUnits="userSpaceOnUse">
<stop offset="0.002" stop-color="#0D1B2A"/>
<stop offset="0.1701" stop-color="#1E5F4A"/>
<stop offset="0.2908" stop-color="#27855C"/>
<stop offset="0.4149" stop-color="#2FA56A"/>
<stop offset="0.5436" stop-color="#35BD76"/>
<stop offset="0.6786" stop-color="#3ACE7E"/>
<stop offset="0.8243" stop-color="#3CD982"/>
<stop offset="1" stop-color="#3DDC84"/>
</linearGradient>
<linearGradient id="paint7_linear_547_69" x1="35.14" y1="-0.0860268" x2="11.8114" y2="37.5609" gradientUnits="userSpaceOnUse">
<stop offset="0.002" stop-color="#0D1B2A"/>
<stop offset="0.1514" stop-color="#1E5F4A"/>
<stop offset="0.507" stop-color="#27855C"/>
<stop offset="0.8085" stop-color="#35BD76"/>
<stop offset="1" stop-color="#3DDC84"/>
</linearGradient>
<linearGradient id="paint8_linear_547_69" x1="20.3623" y1="30.1194" x2="32.3512" y2="32.7823" gradientUnits="userSpaceOnUse">
<stop offset="0.002" stop-color="#0D1B2A"/>
<stop offset="0.0544416" stop-color="#133235"/>
<stop offset="0.1701" stop-color="#1E5F4A"/>
<stop offset="0.2908" stop-color="#27855C"/>
<stop offset="0.4149" stop-color="#2FA56A"/>
<stop offset="0.5436" stop-color="#35BD76"/>
<stop offset="0.6786" stop-color="#3ACE7E"/>
<stop offset="0.8243" stop-color="#3CD982"/>
<stop offset="1" stop-color="#3DDC84"/>
</linearGradient>
<linearGradient id="paint9_linear_547_69" x1="23.0447" y1="44.0845" x2="29.8104" y2="17.9469" gradientUnits="userSpaceOnUse">
<stop offset="0.002" stop-color="#0D1B2A"/>
<stop offset="0.3405" stop-color="#1E5F4A"/>
<stop offset="0.507" stop-color="#27855C"/>
<stop offset="0.8085" stop-color="#35BD76"/>
<stop offset="1" stop-color="#3DDC84"/>
</linearGradient>
<linearGradient id="paint10_linear_547_69" x1="18.4459" y1="38.3386" x2="22.1646" y2="38.3386" gradientUnits="userSpaceOnUse">
<stop offset="0.052" stop-color="#3BD680"/>
<stop offset="0.099" stop-color="#3BD580"/>
<stop offset="0.433" stop-color="#31B46B"/>
<stop offset="0.4885" stop-color="#31B46B"/>
<stop offset="0.637" stop-color="#31B56C"/>
<stop offset="1" stop-color="#3DDC84"/>
</linearGradient>
<linearGradient id="paint11_linear_547_69" x1="7.83657" y1="23.1465" x2="20.1559" y2="48.2835" gradientUnits="userSpaceOnUse">
<stop offset="0.1047" stop-color="#0D1B2A"/>
<stop offset="0.2246" stop-color="#0E1F2C"/>
<stop offset="0.3343" stop-color="#112A31"/>
<stop offset="0.4401" stop-color="#153C3A"/>
<stop offset="0.5436" stop-color="#1C5746"/>
<stop offset="0.6453" stop-color="#247856"/>
<stop offset="0.8432" stop-color="#3AD27F"/>
<stop offset="0.8622" stop-color="#3DDC84"/>
<stop offset="0.8706" stop-color="#3DDC84"/>
<stop offset="0.9676" stop-color="#3DDC84"/>
</linearGradient>
<linearGradient id="paint12_linear_547_69" x1="11.5399" y1="11.7917" x2="10.3057" y2="20.8415" gradientUnits="userSpaceOnUse">
<stop offset="0.1047" stop-color="#0D1B2A"/>
<stop offset="0.2246" stop-color="#0E1F2C"/>
<stop offset="0.3343" stop-color="#112A31"/>
<stop offset="0.4401" stop-color="#153C3A"/>
<stop offset="0.5436" stop-color="#1C5746"/>
<stop offset="0.6453" stop-color="#247856"/>
<stop offset="0.7457" stop-color="#2EA269"/>
<stop offset="0.8432" stop-color="#3AD27F"/>
<stop offset="0.8622" stop-color="#3DDC84"/>
<stop offset="0.8706" stop-color="#3DDC84"/>
<stop offset="0.9676" stop-color="#3DDC84"/>
</linearGradient>
<linearGradient id="paint13_linear_547_69" x1="6.37249" y1="44.8998" x2="12.9494" y2="-1.28345" gradientUnits="userSpaceOnUse">
<stop offset="0.002" stop-color="#0D1B2A"/>
<stop offset="0.0544416" stop-color="#133235"/>
<stop offset="0.1701" stop-color="#1E5F4A"/>
<stop offset="0.2908" stop-color="#27855C"/>
<stop offset="0.4149" stop-color="#2FA56A"/>
<stop offset="0.5436" stop-color="#35BD76"/>
<stop offset="0.6786" stop-color="#3ACE7E"/>
<stop offset="0.8243" stop-color="#3CD982"/>
<stop offset="1" stop-color="#3DDC84"/>
</linearGradient>
<linearGradient id="paint14_linear_547_69" x1="9.09146" y1="33.8318" x2="18.1114" y2="12.634" gradientUnits="userSpaceOnUse">
<stop offset="0.002" stop-color="#0D1B2A"/>
<stop offset="0.0544416" stop-color="#133235"/>
<stop offset="0.1701" stop-color="#1E5F4A"/>
<stop offset="0.2908" stop-color="#27855C"/>
<stop offset="0.4149" stop-color="#2FA56A"/>
<stop offset="0.5436" stop-color="#35BD76"/>
<stop offset="0.6786" stop-color="#3ACE7E"/>
<stop offset="0.8243" stop-color="#3CD982"/>
<stop offset="1" stop-color="#3DDC84"/>
</linearGradient>
<linearGradient id="paint15_linear_547_69" x1="25.9648" y1="29.554" x2="15.8948" y2="50.904" gradientUnits="userSpaceOnUse">
<stop offset="0.0074054" stop-color="#0D1B2A"/>
<stop offset="0.1514" stop-color="#1E5F4A"/>
<stop offset="0.507" stop-color="#27855C"/>
<stop offset="0.8085" stop-color="#35BD76"/>
<stop offset="1" stop-color="#3DDC84"/>
</linearGradient>
<linearGradient id="paint16_linear_547_69" x1="25.731" y1="11.6944" x2="24.5844" y2="20.4686" gradientUnits="userSpaceOnUse">
<stop offset="0.1047" stop-color="#0D1B2A"/>
<stop offset="0.2246" stop-color="#0E1F2C"/>
<stop offset="0.3343" stop-color="#112A31"/>
<stop offset="0.4401" stop-color="#153C3A"/>
<stop offset="0.5436" stop-color="#1C5746"/>
<stop offset="0.6453" stop-color="#247856"/>
<stop offset="0.7457" stop-color="#2EA269"/>
<stop offset="0.8432" stop-color="#3AD27F"/>
<stop offset="0.8622" stop-color="#3DDC84"/>
<stop offset="0.8706" stop-color="#3DDC84"/>
<stop offset="0.9676" stop-color="#3DDC84"/>
</linearGradient>
<linearGradient id="paint17_linear_547_69" x1="13.6875" y1="21.919" x2="31.2895" y2="40.8697" gradientUnits="userSpaceOnUse">
<stop offset="0.0648649" stop-color="#0D1B2A"/>
<stop offset="0.2079" stop-color="#1E5F4A"/>
<stop offset="0.2908" stop-color="#27855C"/>
<stop offset="0.4149" stop-color="#2FA56A"/>
<stop offset="0.5436" stop-color="#35BD76"/>
<stop offset="0.6786" stop-color="#3ACE7E"/>
<stop offset="0.8108" stop-color="#133235"/>
<stop offset="0.8243" stop-color="#3CD982"/>
<stop offset="1" stop-color="#3DDC84"/>
</linearGradient>
<linearGradient id="paint18_linear_547_69" x1="17.8625" y1="17.4691" x2="12.0726" y2="11.3094" gradientUnits="userSpaceOnUse">
<stop stop-color="#133235"/>
<stop offset="0.1047" stop-color="#0D1B2A"/>
<stop offset="0.2246" stop-color="#0E1F2C"/>
<stop offset="0.3343" stop-color="#112A31"/>
<stop offset="0.4401" stop-color="#153C3A"/>
<stop offset="0.5436" stop-color="#1C5746"/>
<stop offset="0.6453" stop-color="#247856"/>
<stop offset="0.7457" stop-color="#2EA269"/>
<stop offset="0.8432" stop-color="#3AD27F"/>
<stop offset="0.849" stop-color="#3DDC84"/>
<stop offset="0.8622" stop-color="#3DDC84"/>
<stop offset="0.9676" stop-color="#3DDC84"/>
</linearGradient>
<linearGradient id="paint19_linear_547_69" x1="20.5632" y1="25.055" x2="22.9159" y2="32.393" gradientUnits="userSpaceOnUse">
<stop offset="0.002" stop-color="#0D1B2A"/>
<stop offset="0.0544416" stop-color="#133235"/>
<stop offset="0.1701" stop-color="#1E5F4A"/>
<stop offset="0.2908" stop-color="#27855C"/>
<stop offset="0.4149" stop-color="#2FA56A"/>
<stop offset="0.5436" stop-color="#35BD76"/>
<stop offset="0.6786" stop-color="#3ACE7E"/>
<stop offset="0.8243" stop-color="#3CD982"/>
<stop offset="1" stop-color="#3DDC84"/>
</linearGradient>
<linearGradient id="paint20_linear_547_69" x1="18.7661" y1="23.5914" x2="29.6533" y2="14.819" gradientUnits="userSpaceOnUse">
<stop stop-color="#133235"/>
<stop offset="0.1047" stop-color="#0D1B2A"/>
<stop offset="0.2246" stop-color="#0E1F2C"/>
<stop offset="0.3343" stop-color="#112A31"/>
<stop offset="0.4401" stop-color="#153C3A"/>
<stop offset="0.5436" stop-color="#1C5746"/>
<stop offset="0.6453" stop-color="#247856"/>
<stop offset="0.7457" stop-color="#2EA269"/>
<stop offset="0.8432" stop-color="#3AD27F"/>
<stop offset="0.849" stop-color="#3DDC84"/>
<stop offset="0.8622" stop-color="#3DDC84"/>
<stop offset="0.9676" stop-color="#3DDC84"/>
</linearGradient>
<linearGradient id="paint21_linear_547_69" x1="18.6083" y1="20.5111" x2="24.2886" y2="10.0045" gradientUnits="userSpaceOnUse">
<stop stop-color="#133235"/>
<stop offset="0.1047" stop-color="#0D1B2A"/>
<stop offset="0.2246" stop-color="#0E1F2C"/>
<stop offset="0.3343" stop-color="#112A31"/>
<stop offset="0.4401" stop-color="#153C3A"/>
<stop offset="0.5436" stop-color="#1C5746"/>
<stop offset="0.6453" stop-color="#247856"/>
<stop offset="0.7457" stop-color="#2EA269"/>
<stop offset="0.8432" stop-color="#3AD27F"/>
<stop offset="0.849" stop-color="#3DDC84"/>
<stop offset="0.8622" stop-color="#3DDC84"/>
<stop offset="0.9676" stop-color="#3DDC84"/>
</linearGradient>
<linearGradient id="paint22_linear_547_69" x1="80.5257" y1="17.7236" x2="75.539" y2="55.967" gradientUnits="userSpaceOnUse">
<stop offset="0.002" stop-color="#0D1B2A"/>
<stop offset="0.0544416" stop-color="#133235"/>
<stop offset="0.1701" stop-color="#1E5F4A"/>
<stop offset="0.2908" stop-color="#27855C"/>
<stop offset="0.4149" stop-color="#2FA56A"/>
<stop offset="0.5436" stop-color="#35BD76"/>
<stop offset="0.6786" stop-color="#3ACE7E"/>
<stop offset="0.8243" stop-color="#3CD982"/>
<stop offset="1" stop-color="#3DDC84"/>
</linearGradient>
<linearGradient id="paint23_linear_547_69" x1="66.4754" y1="15.8915" x2="61.4887" y2="54.135" gradientUnits="userSpaceOnUse">
<stop offset="0.002" stop-color="#0D1B2A"/>
<stop offset="0.0544416" stop-color="#133235"/>
<stop offset="0.1701" stop-color="#1E5F4A"/>
<stop offset="0.2908" stop-color="#27855C"/>
<stop offset="0.4149" stop-color="#2FA56A"/>
<stop offset="0.5436" stop-color="#35BD76"/>
<stop offset="0.6786" stop-color="#3ACE7E"/>
<stop offset="0.8243" stop-color="#3CD982"/>
<stop offset="1" stop-color="#3DDC84"/>
</linearGradient>
<linearGradient id="paint24_linear_547_69" x1="52.6358" y1="14.0869" x2="47.6491" y2="52.3303" gradientUnits="userSpaceOnUse">
<stop offset="0.002" stop-color="#0D1B2A"/>
<stop offset="0.0544416" stop-color="#133235"/>
<stop offset="0.1701" stop-color="#1E5F4A"/>
<stop offset="0.2908" stop-color="#27855C"/>
<stop offset="0.4149" stop-color="#2FA56A"/>
<stop offset="0.5436" stop-color="#35BD76"/>
<stop offset="0.6786" stop-color="#3ACE7E"/>
<stop offset="0.8243" stop-color="#3CD982"/>
<stop offset="1" stop-color="#3DDC84"/>
</linearGradient>
</defs>
</svg>
