<svg width="188" height="188" viewBox="0 0 188 188" fill="none" xmlns="http://www.w3.org/2000/svg">
<path d="M180.137 120.084C176.712 131.396 171.092 141.922 163.598 151.062C156.105 160.202 146.885 167.776 136.464 173.353C126.043 178.929 114.626 182.398 102.865 183.562C91.1031 184.726 79.2274 183.563 67.9157 180.137C56.604 176.712 46.0778 171.092 36.938 163.598C27.7982 156.105 20.2239 146.885 14.6475 136.464C9.07104 126.043 5.60173 114.626 4.43762 102.865C3.27351 91.1031 4.4374 79.2274 7.86283 67.9157C11.2883 56.604 16.9082 46.0778 24.4017 36.938C31.8951 27.7982 41.1155 20.2239 51.5362 14.6475C61.9569 9.07104 73.374 5.60173 85.1355 4.43762C96.897 3.27351 108.773 4.4374 120.084 7.86284C131.396 11.2883 141.922 16.9082 151.062 24.4017C160.202 31.8951 167.776 41.1155 173.353 51.5362C178.929 61.9569 182.398 73.374 183.562 85.1355C184.726 96.897 183.563 108.773 180.137 120.084L180.137 120.084Z" stroke="url(#paint0_linear_0_1)" stroke-opacity="0.6" stroke-width="8" stroke-linecap="round"/>
<path d="M94 4C105.819 4 117.522 6.32792 128.442 10.8508C139.361 15.3738 149.282 22.0031 157.64 30.3604C165.997 38.7177 172.626 48.6392 177.149 59.5585C181.672 70.4778 184 82.181 184 94C184 105.819 181.672 117.522 177.149 128.442C172.626 139.361 165.997 149.282 157.64 157.64C149.282 165.997 139.361 172.626 128.441 177.149C117.522 181.672 105.819 184 94 184C82.181 184 70.4778 181.672 59.5585 177.149C48.6392 172.626 38.7176 165.997 30.3604 157.64C22.0031 149.282 15.3737 139.361 10.8508 128.441C6.32791 117.522 3.99999 105.819 4 94C4.00001 82.181 6.32793 70.4777 10.8509 59.5584C15.3738 48.6391 22.0031 38.7176 30.3604 30.3604C38.7177 22.0031 48.6392 15.3737 59.5585 10.8508C70.4778 6.3279 82.1811 3.99999 94.0001 4L94 4Z" stroke="#3DDC84" stroke-width="8" stroke-linecap="round"/>
<defs>
<linearGradient id="paint0_linear_0_1" x1="248.926" y1="-51.1694" x2="-99.9385" y2="222.679" gradientUnits="userSpaceOnUse">
<stop stop-color="white" stop-opacity="0.3"/>
<stop offset="0.518857" stop-color="white" stop-opacity="0.05"/>
<stop offset="1" stop-color="white" stop-opacity="0.2"/>
</linearGradient>
</defs>
</svg>
