<svg width="36" height="36" viewBox="0 0 36 36" fill="none" xmlns="http://www.w3.org/2000/svg">
<g clip-path="url(#clip0_296_2933)">
<path d="M35.994 18C35.994 8.05875 27.9366 0 17.997 0C8.05765 0 0 8.05875 0 18C0 27.9413 8.05765 36 17.997 36C27.9366 36 35.994 27.9413 35.994 18Z" fill="#3DDC84"/>
<g clip-path="url(#clip1_296_2933)">
<path d="M17.9997 25.6097C19.0286 25.6097 19.8627 24.7756 19.8627 23.7468C19.8627 22.7179 19.0286 21.8838 17.9997 21.8838C16.9708 21.8838 16.1367 22.7179 16.1367 23.7468C16.1367 24.7756 16.9708 25.6097 17.9997 25.6097Z" fill="#0D1B2A"/>
<path d="M27.4439 14.3027C24.7592 11.618 21.3066 10.3906 18 10.3906C14.6934 10.3906 11.2408 11.618 8.55606 14.3027C7.8141 15.0455 7.8175 16.1957 8.54914 16.9304C9.46281 17.8543 10.6591 17.4865 11.1947 16.9329C13.0132 15.1168 15.4298 14.1167 18 14.1167C20.5702 14.1167 22.9868 15.1168 24.8053 16.9329C25.3409 17.4865 26.5372 17.8543 27.4509 16.9304C28.1825 16.1957 28.1859 15.0455 27.4439 14.3027Z" fill="#0D1B2A"/>
<path d="M23.3802 18.3652C21.84 16.8254 19.8524 16.1367 18 16.1367C16.1476 16.1367 14.16 16.8254 12.6198 18.3652C11.8684 19.1166 11.8833 20.2722 12.6273 21.0083C13.366 21.742 14.5154 21.7389 15.2539 21.0004C15.9874 20.2669 16.9626 19.863 18 19.863C19.0373 19.863 20.0125 20.2669 20.7461 21.0004C21.4846 21.7389 22.634 21.742 23.3726 21.0083C24.1166 20.2722 24.1316 19.1166 23.3802 18.3652Z" fill="#0D1B2A"/>
<path d="M19.863 23.7468C19.863 22.7195 19.0272 21.8838 18 21.8838V25.6097C19.0272 25.6097 19.863 24.774 19.863 23.7468Z" fill="#0D1B2A"/>
<path d="M27.4509 16.9304C28.1825 16.1957 28.1859 15.0455 27.4439 14.3027C24.7592 11.618 21.3066 10.3906 18 10.3906V14.1167C20.5702 14.1167 22.9868 15.1169 24.8053 16.933C25.341 17.4866 26.5372 17.8543 27.4509 16.9304Z" fill="#0D1B2A"/>
<path d="M23.3727 21.0083C24.1167 20.2722 24.1316 19.1166 23.3802 18.3652C21.84 16.8254 19.8524 16.1367 18 16.1367V19.863C19.0373 19.863 20.0126 20.2669 20.7461 21.0004C21.4846 21.7389 22.634 21.742 23.3727 21.0083Z" fill="#0D1B2A"/>
</g>
<path d="M28.9737 3.73633C31.3154 6.7746 32.709 10.5816 32.709 14.7144C32.709 24.6557 24.6514 32.7144 14.7118 32.7144C10.5796 32.7144 6.77335 31.3205 3.73535 28.9785C7.02631 33.2486 12.1902 36.0004 17.9973 36.0004C27.9369 36.0004 35.9942 27.9417 35.9942 18.0004C35.9942 12.1922 33.243 7.02756 28.9737 3.73633Z" fill="#18B55E"/>
</g>
<defs>
<clipPath id="clip0_296_2933">
<rect width="36" height="36" fill="white"/>
</clipPath>
<clipPath id="clip1_296_2933">
<rect width="20" height="20" fill="white" transform="translate(8 8)"/>
</clipPath>
</defs>
</svg>
