<svg width="155" height="155" viewBox="0 0 155 155" fill="none" xmlns="http://www.w3.org/2000/svg">
<path d="M148.802 99.092C145.967 108.456 141.315 117.169 135.112 124.735C128.909 132.3 121.277 138.57 112.651 143.186C104.025 147.802 94.5738 150.674 84.8379 151.638C75.102 152.601 65.2716 151.638 55.908 148.802C46.5445 145.967 37.8311 141.315 30.2654 135.112C22.6996 128.909 16.4298 121.277 11.8137 112.651C7.19769 104.025 4.32588 94.5738 3.36225 84.8379C2.39863 75.102 3.36207 65.2716 6.19757 55.908C9.03307 46.5445 13.6851 37.8311 19.888 30.2654C26.091 22.6996 33.7234 16.4298 42.3494 11.8137C50.9754 7.19769 60.4262 4.32588 70.1621 3.36225C79.898 2.39863 89.7284 3.36207 99.092 6.19757C108.456 9.03307 117.169 13.6851 124.735 19.888C132.3 26.091 138.57 33.7234 143.186 42.3494C147.802 50.9754 150.674 60.4262 151.638 70.1621C152.601 79.898 151.638 89.7284 148.802 99.092L148.802 99.092Z" stroke="url(#paint0_linear_0_1)" stroke-opacity="0.6" stroke-width="6" stroke-linecap="round"/>
<path d="M77.5 3C95.9081 3 113.664 9.81511 127.345 22.1313C141.026 34.4475 149.663 51.3927 151.591 69.6996C153.518 88.0065 148.599 106.379 137.783 121.274C126.967 136.169 111.02 146.533 93.0151 150.367C75.0106 154.2 56.2243 151.232 40.2784 142.035C24.3325 132.838 12.3561 118.063 6.65847 100.559C0.960804 83.0551 1.94532 64.0613 9.42219 47.2401C16.8991 30.4189 30.3388 16.9613 47.1502 9.46223" stroke="#3DDC84" stroke-width="6" stroke-linecap="round"/>
<defs>
<linearGradient id="paint0_linear_0_1" x1="205.231" y1="-42.1875" x2="-82.3961" y2="183.591" gradientUnits="userSpaceOnUse">
<stop stop-color="white" stop-opacity="0.3"/>
<stop offset="0.518857" stop-color="white" stop-opacity="0.05"/>
<stop offset="1" stop-color="white" stop-opacity="0.2"/>
</linearGradient>
</defs>
</svg>
