<svg width="188" height="188" viewBox="0 0 188 188" fill="none" xmlns="http://www.w3.org/2000/svg">
<path d="M180.138 120.084C176.712 131.396 171.092 141.922 163.599 151.062C156.105 160.202 146.885 167.776 136.464 173.353C126.044 178.929 114.627 182.398 102.865 183.562C91.1035 184.726 79.2279 183.563 67.9162 180.137C56.6045 176.712 46.0783 171.092 36.9385 163.598C27.7987 156.105 20.2244 146.885 14.648 136.464C9.07153 126.043 5.60222 114.626 4.43811 102.865C3.274 91.1031 4.43789 79.2274 7.86332 67.9157C11.2888 56.604 16.9087 46.0778 24.4021 36.938C31.8956 27.7982 41.116 20.2239 51.5367 14.6475C61.9574 9.07104 73.3744 5.60173 85.1359 4.43762C96.8974 3.27351 108.773 4.4374 120.085 7.86284C131.396 11.2883 141.923 16.9082 151.062 24.4017C160.202 31.8951 167.777 41.1155 173.353 51.5362C178.929 61.9569 182.399 73.374 183.563 85.1355C184.727 96.897 183.563 108.773 180.138 120.084L180.138 120.084Z" stroke="url(#paint0_linear_0_1)" stroke-opacity="0.6" stroke-width="8" stroke-linecap="round"/>
<path d="M94.0005 4C116.851 4 138.846 12.6918 155.524 28.3122C172.202 43.9327 182.313 65.3121 183.808 88.1137C185.302 110.915 178.068 133.432 163.571 151.095C149.075 168.759 128.403 180.247 105.748 183.23C83.0928 186.213 60.1515 180.466 41.5775 167.156C23.0035 153.846 10.1877 133.97 5.72981 111.558C1.2719 89.1466 5.50567 65.8786 17.5723 46.4739C29.6389 27.0692 48.6349 12.9808 70.7068 7.06667" stroke="#3DDC84" stroke-width="8" stroke-linecap="round"/>
<defs>
<linearGradient id="paint0_linear_0_1" x1="248.926" y1="-51.1694" x2="-99.938" y2="222.679" gradientUnits="userSpaceOnUse">
<stop stop-color="white" stop-opacity="0.3"/>
<stop offset="0.518857" stop-color="white" stop-opacity="0.05"/>
<stop offset="1" stop-color="white" stop-opacity="0.2"/>
</linearGradient>
</defs>
</svg>
