<svg width="36" height="36" viewBox="0 0 36 36" fill="none" xmlns="http://www.w3.org/2000/svg">
<g clip-path="url(#clip0_296_2910)">
<path d="M35.994 18C35.994 8.05875 27.9366 0 17.997 0C8.05765 0 0 8.05875 0 18C0 27.9413 8.05765 36 17.997 36C27.9366 36 35.994 27.9413 35.994 18Z" fill="#3DDC84"/>
<path d="M28.9737 3.73633C31.3154 6.7746 32.709 10.5816 32.709 14.7144C32.709 24.6557 24.6514 32.7144 14.7118 32.7144C10.5796 32.7144 6.77335 31.3205 3.73535 28.9785C7.02631 33.2486 12.1902 36.0004 17.9973 36.0004C27.9369 36.0004 35.9942 27.9417 35.9942 18.0004C35.9942 12.1922 33.243 7.02756 28.9737 3.73633Z" fill="#18B55E"/>
<path d="M21.292 18.8197L20.1077 17.6334V23.3404C20.1077 24.5072 19.1635 25.4531 17.9987 25.4531C16.8338 25.4531 15.8896 24.5072 15.8896 23.3404V17.5812L14.7098 18.7628C13.8862 19.5879 12.5508 19.5879 11.7272 18.7628C10.9034 17.9377 10.9034 16.6 11.7272 15.7749L14.9898 12.5067L16.2206 11.2737C17.1882 10.3046 18.7567 10.3046 19.7243 11.2737L20.9552 12.5067L24.2748 15.8318C25.0959 16.6543 25.0959 17.9881 24.2748 18.8106L24.2658 18.8197C23.4445 19.6421 22.1131 19.6421 21.292 18.8197Z" fill="#0D1B2A"/>
</g>
<defs>
<clipPath id="clip0_296_2910">
<rect width="36" height="36" fill="white"/>
</clipPath>
</defs>
</svg>
