<svg width="155" height="155" viewBox="0 0 155 155" fill="none" xmlns="http://www.w3.org/2000/svg">
<path d="M148.802 99.092C145.967 108.456 141.315 117.169 135.112 124.735C128.909 132.3 121.277 138.57 112.651 143.186C104.025 147.802 94.5738 150.674 84.8379 151.638C75.102 152.601 65.2716 151.638 55.908 148.802C46.5445 145.967 37.8311 141.315 30.2654 135.112C22.6996 128.909 16.4298 121.277 11.8137 112.651C7.19769 104.025 4.32588 94.5738 3.36225 84.8379C2.39863 75.102 3.36207 65.2716 6.19757 55.908C9.03307 46.5445 13.6851 37.8311 19.888 30.2654C26.091 22.6996 33.7234 16.4298 42.3494 11.8137C50.9754 7.19769 60.4262 4.32588 70.1621 3.36225C79.898 2.39863 89.7284 3.36207 99.092 6.19757C108.456 9.03307 117.169 13.6851 124.735 19.888C132.3 26.091 138.57 33.7234 143.186 42.3494C147.802 50.9754 150.674 60.4262 151.638 70.1621C152.601 79.898 151.638 89.7284 148.802 99.092L148.802 99.092Z" stroke="url(#paint0_linear_0_1)" stroke-opacity="0.6" stroke-width="6" stroke-linecap="round"/>
<path d="M77.5 3C87.2835 3 96.9712 4.927 106.01 8.67098C115.049 12.415 123.261 17.9026 130.179 24.8205C137.097 31.7385 142.585 39.9513 146.329 48.9901C150.073 58.0289 152 67.7165 152 77.5C152 87.2835 150.073 96.9712 146.329 106.01C142.585 115.049 137.097 123.262 130.179 130.179C123.261 137.097 115.049 142.585 106.01 146.329C96.9711 150.073 87.2835 152 77.5 152C67.7165 152 58.0288 150.073 48.9901 146.329C39.9513 142.585 31.7385 137.097 24.8205 130.179C17.9026 123.261 12.4149 115.049 8.67096 106.01C4.92699 96.9711 3 87.2834 3 77.5C3 67.7165 4.92701 58.0288 8.67099 48.99C12.415 39.9513 17.9026 31.7385 24.8206 24.8205C31.7385 17.9026 39.9514 12.4149 48.9901 8.67096C58.0289 4.92699 67.7166 2.99999 77.5 3L77.5 3Z" stroke="#3DDC84" stroke-width="6" stroke-linecap="round"/>
<defs>
<linearGradient id="paint0_linear_0_1" x1="205.231" y1="-42.1875" x2="-82.3961" y2="183.591" gradientUnits="userSpaceOnUse">
<stop stop-color="white" stop-opacity="0.3"/>
<stop offset="0.518857" stop-color="white" stop-opacity="0.05"/>
<stop offset="1" stop-color="white" stop-opacity="0.2"/>
</linearGradient>
</defs>
</svg>
