<svg width="268" height="268" viewBox="0 0 268 268" fill="none" xmlns="http://www.w3.org/2000/svg">
<path d="M256.507 171.098C251.635 187.185 243.642 202.156 232.985 215.155C222.327 228.154 209.214 238.926 194.393 246.857C179.573 254.788 163.335 259.722 146.608 261.378C129.88 263.033 112.991 261.378 96.9029 256.506C80.8151 251.634 65.8445 243.642 52.8457 232.984C39.8469 222.327 29.0745 209.214 21.1436 194.393C13.2126 179.572 8.2785 163.335 6.62288 146.607C4.96726 129.88 6.62257 112.99 11.4943 96.9024C16.366 80.8146 24.3588 65.844 35.0162 52.8452C45.6736 39.8464 58.7869 29.074 73.6075 21.1431C88.4281 13.2121 104.666 8.27802 121.393 6.62239C138.121 4.96677 155.01 6.62208 171.098 11.4938C187.186 16.3655 202.157 24.3583 215.155 35.0157C228.154 45.6731 238.927 58.7864 246.857 73.607C254.788 88.4276 259.722 104.665 261.378 121.393C263.034 138.12 261.378 155.01 256.507 171.098L256.507 171.098Z" stroke="url(#paint0_linear_0_1)" stroke-opacity="0.6" stroke-width="12" stroke-linecap="round"/>
<path d="M134 6C166.499 6 197.781 18.3617 221.5 40.5774C245.22 62.7931 259.601 93.1995 261.726 125.628C263.852 158.057 253.563 190.081 232.946 215.202C212.329 240.324 182.928 256.663 150.708 260.905C118.487 265.147 85.8596 256.974 59.4433 238.044C33.027 219.115 14.8001 190.846 8.45997 158.972C2.11983 127.097 8.14119 94.0051 25.3026 66.4073C42.4641 38.8095 69.4805 18.7727 100.872 10.3615" stroke="#3DDC84" stroke-width="12" stroke-linecap="round"/>
<defs>
<linearGradient id="paint0_linear_0_1" x1="354.852" y1="-72.9435" x2="-142.465" y2="317.435" gradientUnits="userSpaceOnUse">
<stop stop-color="white" stop-opacity="0.3"/>
<stop offset="0.518857" stop-color="white" stop-opacity="0.05"/>
<stop offset="1" stop-color="white" stop-opacity="0.2"/>
</linearGradient>
</defs>
</svg>
